<?xml version="1.0" encoding="UTF-8" standalone="no"?><svg xmlns="http://www.w3.org/2000/svg" xmlns:xlink="http://www.w3.org/1999/xlink" contentScriptType="application/ecmascript" contentStyleType="text/css" height="263px" preserveAspectRatio="none" style="width:708px;height:263px;" version="1.1" viewBox="0 0 708 263" width="708px" zoomAndPan="magnify"><defs><filter height="300%" id="f1mfta309fnu88" width="300%" x="-1" y="-1"><feGaussianBlur result="blurOut" stdDeviation="2.0"/><feColorMatrix in="blurOut" result="blurOut2" type="matrix" values="0 0 0 0 0 0 0 0 0 0 0 0 0 0 0 0 0 0 .4 0"/><feOffset dx="4.0" dy="4.0" in="blurOut2" result="blurOut3"/><feBlend in="SourceGraphic" in2="blurOut3" mode="normal"/></filter></defs><g><text fill="#000000" font-family="sans-serif" font-size="18" lengthAdjust="spacingAndGlyphs" textLength="105" x="305" y="16.708">ER Diagram</text><!--class departments--><rect fill="#FEFECE" filter="url(#f1mfta309fnu88)" height="60.8047" id="departments" style="stroke: #A80036; stroke-width: 1.5;" width="113" x="146.369" y="191.9531"/><ellipse cx="161.369" cy="207.9531" fill="#ADD1B2" rx="11" ry="11" style="stroke: #A80036; stroke-width: 1.0;"/><path d="M159.6659,208.8281 L159.6659,211.25 L164.0253,211.25 L164.0253,210.375 C164.0253,209.8906 164.0565,209.75 164.1659,209.5938 C164.3378,209.3438 164.6034,209.2344 164.869,209.2344 C165.1503,209.2344 165.4315,209.3906 165.6034,209.6406 C165.6815,209.7969 165.7128,209.9375 165.7128,210.375 L165.7128,212.9531 L157.7128,212.9531 C157.3221,212.9531 157.0878,212.9063 156.9471,212.7813 C156.7284,212.625 156.5878,212.375 156.5878,212.1094 C156.5878,211.8125 156.744,211.5469 156.994,211.375 C157.1503,211.2656 157.3065,211.25 157.7128,211.25 L157.9628,211.25 L157.9628,204.7344 L157.7128,204.7344 C157.2909,204.7344 157.1034,204.7031 156.9471,204.5938 C156.7284,204.4219 156.5878,204.1719 156.5878,203.8906 C156.5878,203.6094 156.744,203.3125 156.994,203.1563 C157.1503,203.0625 157.2753,203.0469 157.7128,203.0469 L165.3378,203.0469 L165.3378,205.5938 C165.3378,206.0625 165.3065,206.2031 165.1971,206.375 C165.0253,206.5938 164.7596,206.7344 164.494,206.7344 C164.2128,206.7344 163.9315,206.5781 163.7596,206.3281 C163.6815,206.1719 163.6503,206 163.6503,205.5938 L163.6503,204.7344 L159.6659,204.7344 L159.6659,207.1406 L161.119,207.1406 L161.119,207.0156 C161.119,206.5625 161.1503,206.4063 161.2596,206.2344 C161.4315,206.0156 161.6971,205.875 161.9471,205.875 C162.4003,205.875 162.7128,206.1875 162.7753,206.6563 C162.7909,206.8125 162.7909,206.8594 162.7909,207.0156 L162.7909,208.9375 C162.7909,209.3906 162.7596,209.5469 162.6346,209.7031 C162.4784,209.9219 162.2128,210.0625 161.9628,210.0625 C161.6659,210.0625 161.3846,209.9063 161.2284,209.6563 C161.1503,209.5 161.119,209.3438 161.119,208.9375 L161.119,208.8281 Z "/><text fill="#000000" font-family="sans-serif" font-size="12" lengthAdjust="spacingAndGlyphs" textLength="81" x="175.369" y="212.1074">departments</text><line style="stroke: #A80036; stroke-width: 1.5;" x1="147.369" x2="258.369" y1="223.9531" y2="223.9531"/><text fill="#000000" font-family="sans-serif" font-size="11" lengthAdjust="spacingAndGlyphs" textLength="10" x="152.369" y="238.1636">id</text><line style="stroke: #A80036; stroke-width: 1.5;" x1="147.369" x2="258.369" y1="244.7578" y2="244.7578"/><!--class dept_emp--><rect fill="#FEFECE" filter="url(#f1mfta309fnu88)" height="86.4141" id="dept_emp" style="stroke: #A80036; stroke-width: 1.5;" width="94" x="293.869" y="28.9531"/><ellipse cx="308.869" cy="44.9531" fill="#ADD1B2" rx="11" ry="11" style="stroke: #A80036; stroke-width: 1.0;"/><path d="M307.1659,45.8281 L307.1659,48.25 L311.5253,48.25 L311.5253,47.375 C311.5253,46.8906 311.5565,46.75 311.6659,46.5938 C311.8378,46.3438 312.1034,46.2344 312.369,46.2344 C312.6503,46.2344 312.9315,46.3906 313.1034,46.6406 C313.1815,46.7969 313.2128,46.9375 313.2128,47.375 L313.2128,49.9531 L305.2128,49.9531 C304.8221,49.9531 304.5878,49.9063 304.4471,49.7813 C304.2284,49.625 304.0878,49.375 304.0878,49.1094 C304.0878,48.8125 304.244,48.5469 304.494,48.375 C304.6503,48.2656 304.8065,48.25 305.2128,48.25 L305.4628,48.25 L305.4628,41.7344 L305.2128,41.7344 C304.7909,41.7344 304.6034,41.7031 304.4471,41.5938 C304.2284,41.4219 304.0878,41.1719 304.0878,40.8906 C304.0878,40.6094 304.244,40.3125 304.494,40.1563 C304.6503,40.0625 304.7753,40.0469 305.2128,40.0469 L312.8378,40.0469 L312.8378,42.5938 C312.8378,43.0625 312.8065,43.2031 312.6971,43.375 C312.5253,43.5938 312.2596,43.7344 311.994,43.7344 C311.7128,43.7344 311.4315,43.5781 311.2596,43.3281 C311.1815,43.1719 311.1503,43 311.1503,42.5938 L311.1503,41.7344 L307.1659,41.7344 L307.1659,44.1406 L308.619,44.1406 L308.619,44.0156 C308.619,43.5625 308.6503,43.4063 308.7596,43.2344 C308.9315,43.0156 309.1971,42.875 309.4471,42.875 C309.9003,42.875 310.2128,43.1875 310.2753,43.6563 C310.2909,43.8125 310.2909,43.8594 310.2909,44.0156 L310.2909,45.9375 C310.2909,46.3906 310.2596,46.5469 310.1346,46.7031 C309.9784,46.9219 309.7128,47.0625 309.4628,47.0625 C309.1659,47.0625 308.8846,46.9063 308.7284,46.6563 C308.6503,46.5 308.619,46.3438 308.619,45.9375 L308.619,45.8281 Z "/><text fill="#000000" font-family="sans-serif" font-size="12" lengthAdjust="spacingAndGlyphs" textLength="62" x="322.869" y="49.1074">dept_emp</text><line style="stroke: #A80036; stroke-width: 1.5;" x1="294.869" x2="386.869" y1="60.9531" y2="60.9531"/><text fill="#000000" font-family="sans-serif" font-size="11" lengthAdjust="spacingAndGlyphs" textLength="10" x="299.869" y="75.1636">id</text><text fill="#000000" font-family="sans-serif" font-size="11" lengthAdjust="spacingAndGlyphs" textLength="71" x="299.869" y="87.9683">employee_id</text><text fill="#000000" font-family="sans-serif" font-size="11" lengthAdjust="spacingAndGlyphs" textLength="82" x="299.869" y="100.7729">department_id</text><line style="stroke: #A80036; stroke-width: 1.5;" x1="294.869" x2="386.869" y1="107.3672" y2="107.3672"/><!--class dept_manager--><rect fill="#FEFECE" filter="url(#f1mfta309fnu88)" height="86.4141" id="dept_manager" style="stroke: #A80036; stroke-width: 1.5;" width="123" x="10.3688" y="28.9531"/><ellipse cx="25.3688" cy="44.9531" fill="#ADD1B2" rx="11" ry="11" style="stroke: #A80036; stroke-width: 1.0;"/><path d="M23.6656,45.8281 L23.6656,48.25 L28.025,48.25 L28.025,47.375 C28.025,46.8906 28.0563,46.75 28.1656,46.5938 C28.3375,46.3438 28.6031,46.2344 28.8688,46.2344 C29.15,46.2344 29.4313,46.3906 29.6031,46.6406 C29.6813,46.7969 29.7125,46.9375 29.7125,47.375 L29.7125,49.9531 L21.7125,49.9531 C21.3219,49.9531 21.0875,49.9063 20.9469,49.7813 C20.7281,49.625 20.5875,49.375 20.5875,49.1094 C20.5875,48.8125 20.7438,48.5469 20.9938,48.375 C21.15,48.2656 21.3063,48.25 21.7125,48.25 L21.9625,48.25 L21.9625,41.7344 L21.7125,41.7344 C21.2906,41.7344 21.1031,41.7031 20.9469,41.5938 C20.7281,41.4219 20.5875,41.1719 20.5875,40.8906 C20.5875,40.6094 20.7438,40.3125 20.9938,40.1563 C21.15,40.0625 21.275,40.0469 21.7125,40.0469 L29.3375,40.0469 L29.3375,42.5938 C29.3375,43.0625 29.3063,43.2031 29.1969,43.375 C29.025,43.5938 28.7594,43.7344 28.4938,43.7344 C28.2125,43.7344 27.9313,43.5781 27.7594,43.3281 C27.6813,43.1719 27.65,43 27.65,42.5938 L27.65,41.7344 L23.6656,41.7344 L23.6656,44.1406 L25.1188,44.1406 L25.1188,44.0156 C25.1188,43.5625 25.15,43.4063 25.2594,43.2344 C25.4313,43.0156 25.6969,42.875 25.9469,42.875 C26.4,42.875 26.7125,43.1875 26.775,43.6563 C26.7906,43.8125 26.7906,43.8594 26.7906,44.0156 L26.7906,45.9375 C26.7906,46.3906 26.7594,46.5469 26.6344,46.7031 C26.4781,46.9219 26.2125,47.0625 25.9625,47.0625 C25.6656,47.0625 25.3844,46.9063 25.2281,46.6563 C25.15,46.5 25.1188,46.3438 25.1188,45.9375 L25.1188,45.8281 Z "/><text fill="#000000" font-family="sans-serif" font-size="12" lengthAdjust="spacingAndGlyphs" textLength="91" x="39.3688" y="49.1074">dept_manager</text><line style="stroke: #A80036; stroke-width: 1.5;" x1="11.3688" x2="132.3688" y1="60.9531" y2="60.9531"/><text fill="#000000" font-family="sans-serif" font-size="11" lengthAdjust="spacingAndGlyphs" textLength="10" x="16.3688" y="75.1636">id</text><text fill="#000000" font-family="sans-serif" font-size="11" lengthAdjust="spacingAndGlyphs" textLength="71" x="16.3688" y="87.9683">employee_id</text><text fill="#000000" font-family="sans-serif" font-size="11" lengthAdjust="spacingAndGlyphs" textLength="82" x="16.3688" y="100.7729">department_id</text><line style="stroke: #A80036; stroke-width: 1.5;" x1="11.3688" x2="132.3688" y1="107.3672" y2="107.3672"/><!--class employees--><rect fill="#FEFECE" filter="url(#f1mfta309fnu88)" height="60.8047" id="employees" style="stroke: #A80036; stroke-width: 1.5;" width="99" x="421.369" y="191.9531"/><ellipse cx="436.369" cy="207.9531" fill="#ADD1B2" rx="11" ry="11" style="stroke: #A80036; stroke-width: 1.0;"/><path d="M434.6659,208.8281 L434.6659,211.25 L439.0253,211.25 L439.0253,210.375 C439.0253,209.8906 439.0565,209.75 439.1659,209.5938 C439.3378,209.3438 439.6034,209.2344 439.869,209.2344 C440.1503,209.2344 440.4315,209.3906 440.6034,209.6406 C440.6815,209.7969 440.7128,209.9375 440.7128,210.375 L440.7128,212.9531 L432.7128,212.9531 C432.3221,212.9531 432.0878,212.9063 431.9471,212.7813 C431.7284,212.625 431.5878,212.375 431.5878,212.1094 C431.5878,211.8125 431.744,211.5469 431.994,211.375 C432.1503,211.2656 432.3065,211.25 432.7128,211.25 L432.9628,211.25 L432.9628,204.7344 L432.7128,204.7344 C432.2909,204.7344 432.1034,204.7031 431.9471,204.5938 C431.7284,204.4219 431.5878,204.1719 431.5878,203.8906 C431.5878,203.6094 431.744,203.3125 431.994,203.1563 C432.1503,203.0625 432.2753,203.0469 432.7128,203.0469 L440.3378,203.0469 L440.3378,205.5938 C440.3378,206.0625 440.3065,206.2031 440.1971,206.375 C440.0253,206.5938 439.7596,206.7344 439.494,206.7344 C439.2128,206.7344 438.9315,206.5781 438.7596,206.3281 C438.6815,206.1719 438.6503,206 438.6503,205.5938 L438.6503,204.7344 L434.6659,204.7344 L434.6659,207.1406 L436.119,207.1406 L436.119,207.0156 C436.119,206.5625 436.1503,206.4063 436.2596,206.2344 C436.4315,206.0156 436.6971,205.875 436.9471,205.875 C437.4003,205.875 437.7128,206.1875 437.7753,206.6563 C437.7909,206.8125 437.7909,206.8594 437.7909,207.0156 L437.7909,208.9375 C437.7909,209.3906 437.7596,209.5469 437.6346,209.7031 C437.4784,209.9219 437.2128,210.0625 436.9628,210.0625 C436.6659,210.0625 436.3846,209.9063 436.2284,209.6563 C436.1503,209.5 436.119,209.3438 436.119,208.9375 L436.119,208.8281 Z "/><text fill="#000000" font-family="sans-serif" font-size="12" lengthAdjust="spacingAndGlyphs" textLength="67" x="450.369" y="212.1074">employees</text><line style="stroke: #A80036; stroke-width: 1.5;" x1="422.369" x2="519.369" y1="223.9531" y2="223.9531"/><text fill="#000000" font-family="sans-serif" font-size="11" lengthAdjust="spacingAndGlyphs" textLength="10" x="427.369" y="238.1636">id</text><line style="stroke: #A80036; stroke-width: 1.5;" x1="422.369" x2="519.369" y1="244.7578" y2="244.7578"/><!--class salaries--><rect fill="#FEFECE" filter="url(#f1mfta309fnu88)" height="73.6094" id="salaries" style="stroke: #A80036; stroke-width: 1.5;" width="83" x="614.369" y="34.9531"/><ellipse cx="630.269" cy="50.9531" fill="#ADD1B2" rx="11" ry="11" style="stroke: #A80036; stroke-width: 1.0;"/><path d="M628.5659,51.8281 L628.5659,54.25 L632.9253,54.25 L632.9253,53.375 C632.9253,52.8906 632.9565,52.75 633.0659,52.5938 C633.2378,52.3438 633.5034,52.2344 633.769,52.2344 C634.0503,52.2344 634.3315,52.3906 634.5034,52.6406 C634.5815,52.7969 634.6128,52.9375 634.6128,53.375 L634.6128,55.9531 L626.6128,55.9531 C626.2221,55.9531 625.9878,55.9063 625.8471,55.7813 C625.6284,55.625 625.4878,55.375 625.4878,55.1094 C625.4878,54.8125 625.644,54.5469 625.894,54.375 C626.0503,54.2656 626.2065,54.25 626.6128,54.25 L626.8628,54.25 L626.8628,47.7344 L626.6128,47.7344 C626.1909,47.7344 626.0034,47.7031 625.8471,47.5938 C625.6284,47.4219 625.4878,47.1719 625.4878,46.8906 C625.4878,46.6094 625.644,46.3125 625.894,46.1563 C626.0503,46.0625 626.1753,46.0469 626.6128,46.0469 L634.2378,46.0469 L634.2378,48.5938 C634.2378,49.0625 634.2065,49.2031 634.0971,49.375 C633.9253,49.5938 633.6596,49.7344 633.394,49.7344 C633.1128,49.7344 632.8315,49.5781 632.6596,49.3281 C632.5815,49.1719 632.5503,49 632.5503,48.5938 L632.5503,47.7344 L628.5659,47.7344 L628.5659,50.1406 L630.019,50.1406 L630.019,50.0156 C630.019,49.5625 630.0503,49.4063 630.1596,49.2344 C630.3315,49.0156 630.5971,48.875 630.8471,48.875 C631.3003,48.875 631.6128,49.1875 631.6753,49.6563 C631.6909,49.8125 631.6909,49.8594 631.6909,50.0156 L631.6909,51.9375 C631.6909,52.3906 631.6596,52.5469 631.5346,52.7031 C631.3784,52.9219 631.1128,53.0625 630.8628,53.0625 C630.5659,53.0625 630.2846,52.9063 630.1284,52.6563 C630.0503,52.5 630.019,52.3438 630.019,51.9375 L630.019,51.8281 Z "/><text fill="#000000" font-family="sans-serif" font-size="12" lengthAdjust="spacingAndGlyphs" textLength="49" x="644.469" y="55.1074">salaries</text><line style="stroke: #A80036; stroke-width: 1.5;" x1="615.369" x2="696.369" y1="66.9531" y2="66.9531"/><text fill="#000000" font-family="sans-serif" font-size="11" lengthAdjust="spacingAndGlyphs" textLength="10" x="620.369" y="81.1636">id</text><text fill="#000000" font-family="sans-serif" font-size="11" lengthAdjust="spacingAndGlyphs" textLength="71" x="620.369" y="93.9683">employee_id</text><line style="stroke: #A80036; stroke-width: 1.5;" x1="615.369" x2="696.369" y1="100.5625" y2="100.5625"/><!--class titles--><rect fill="#FEFECE" filter="url(#f1mfta309fnu88)" height="73.6094" id="titles" style="stroke: #A80036; stroke-width: 1.5;" width="83" x="491.369" y="34.9531"/><ellipse cx="515.369" cy="50.9531" fill="#ADD1B2" rx="11" ry="11" style="stroke: #A80036; stroke-width: 1.0;"/><path d="M513.6659,51.8281 L513.6659,54.25 L518.0253,54.25 L518.0253,53.375 C518.0253,52.8906 518.0565,52.75 518.1659,52.5938 C518.3378,52.3438 518.6034,52.2344 518.869,52.2344 C519.1503,52.2344 519.4315,52.3906 519.6034,52.6406 C519.6815,52.7969 519.7128,52.9375 519.7128,53.375 L519.7128,55.9531 L511.7128,55.9531 C511.3221,55.9531 511.0878,55.9063 510.9471,55.7813 C510.7284,55.625 510.5878,55.375 510.5878,55.1094 C510.5878,54.8125 510.744,54.5469 510.994,54.375 C511.1503,54.2656 511.3065,54.25 511.7128,54.25 L511.9628,54.25 L511.9628,47.7344 L511.7128,47.7344 C511.2909,47.7344 511.1034,47.7031 510.9471,47.5938 C510.7284,47.4219 510.5878,47.1719 510.5878,46.8906 C510.5878,46.6094 510.744,46.3125 510.994,46.1563 C511.1503,46.0625 511.2753,46.0469 511.7128,46.0469 L519.3378,46.0469 L519.3378,48.5938 C519.3378,49.0625 519.3065,49.2031 519.1971,49.375 C519.0253,49.5938 518.7596,49.7344 518.494,49.7344 C518.2128,49.7344 517.9315,49.5781 517.7596,49.3281 C517.6815,49.1719 517.6503,49 517.6503,48.5938 L517.6503,47.7344 L513.6659,47.7344 L513.6659,50.1406 L515.119,50.1406 L515.119,50.0156 C515.119,49.5625 515.1503,49.4063 515.2596,49.2344 C515.4315,49.0156 515.6971,48.875 515.9471,48.875 C516.4003,48.875 516.7128,49.1875 516.7753,49.6563 C516.7909,49.8125 516.7909,49.8594 516.7909,50.0156 L516.7909,51.9375 C516.7909,52.3906 516.7596,52.5469 516.6346,52.7031 C516.4784,52.9219 516.2128,53.0625 515.9628,53.0625 C515.6659,53.0625 515.3846,52.9063 515.2284,52.6563 C515.1503,52.5 515.119,52.3438 515.119,51.9375 L515.119,51.8281 Z "/><text fill="#000000" font-family="sans-serif" font-size="12" lengthAdjust="spacingAndGlyphs" textLength="31" x="531.369" y="55.1074">titles</text><line style="stroke: #A80036; stroke-width: 1.5;" x1="492.369" x2="573.369" y1="66.9531" y2="66.9531"/><text fill="#000000" font-family="sans-serif" font-size="11" lengthAdjust="spacingAndGlyphs" textLength="10" x="497.369" y="81.1636">id</text><text fill="#000000" font-family="sans-serif" font-size="11" lengthAdjust="spacingAndGlyphs" textLength="71" x="497.369" y="93.9683">employee_id</text><line style="stroke: #A80036; stroke-width: 1.5;" x1="492.369" x2="573.369" y1="100.5625" y2="100.5625"/><!--link dept_emp to employees--><path d="M369.003,115.0391 C379.888,130.3301 392.852,147.4121 405.869,161.9531 C415.053,172.2117 425.813,182.6112 435.906,191.7846 " fill="none" id="dept_emp-employees" style="stroke: #A80036; stroke-width: 1.0;"/><text fill="#000000" font-family="sans-serif" font-size="13" lengthAdjust="spacingAndGlyphs" textLength="81" x="406.869" y="158.02">employee_id</text><!--link dept_emp to departments--><path d="M301.693,115.1101 C278.903,139.6341 250.738,169.942 230.314,191.9201 " fill="none" id="dept_emp-departments" style="stroke: #A80036; stroke-width: 1.0;"/><text fill="#000000" font-family="sans-serif" font-size="13" lengthAdjust="spacingAndGlyphs" textLength="94" x="272.869" y="158.02">department_id</text><!--link dept_manager to employees--><path d="M108.189,115.2421 C124.991,132.2451 146.233,150.4981 168.869,161.9531 C212.378,183.9705 347.333,204.8346 421.24,215.0002 " fill="none" id="dept_manager-employees" style="stroke: #A80036; stroke-width: 1.0;"/><text fill="#000000" font-family="sans-serif" font-size="13" lengthAdjust="spacingAndGlyphs" textLength="81" x="169.869" y="158.02">employee_id</text><!--link dept_manager to departments--><path d="M19.878,115.1021 C7.5633,130.0811 0.824,146.9441 11.8688,161.9531 C42.4378,203.4939 101.8117,216.8621 146.286,220.7642 " fill="none" id="dept_manager-departments" style="stroke: #A80036; stroke-width: 1.0;"/><text fill="#000000" font-family="sans-serif" font-size="13" lengthAdjust="spacingAndGlyphs" textLength="94" x="12.8688" y="158.02">department_id</text><!--link salaries to employees--><path d="M636.077,109.1661 C625.105,126.7691 610.181,147.2441 592.869,161.9531 C571.678,179.9579 544.102,194.0061 520.529,203.9198 " fill="none" id="salaries-employees" style="stroke: #A80036; stroke-width: 1.0;"/><text fill="#000000" font-family="sans-serif" font-size="13" lengthAdjust="spacingAndGlyphs" textLength="81" x="610.869" y="158.02">employee_id</text><!--link titles to employees--><path d="M517.702,109.2801 C507.162,134.5251 493.284,167.764 483.377,191.4927 " fill="none" id="titles-employees" style="stroke: #A80036; stroke-width: 1.0;"/><text fill="#000000" font-family="sans-serif" font-size="13" lengthAdjust="spacingAndGlyphs" textLength="81" x="502.869" y="158.02">employee_id</text><!--
@startuml
title ER Diagram
entity "departments" {
id
}
entity "dept_emp" {
id
employee_id
department_id
}
entity "dept_manager" {
id
employee_id
department_id
}
entity "employees" {
id
}
entity "salaries" {
id
employee_id
}
entity "titles" {
id
employee_id
}
dept_emp - - employees :employee_id
dept_emp - - departments :department_id
dept_manager - - employees :employee_id
dept_manager - - departments :department_id
salaries - - employees :employee_id
titles - - employees :employee_id
@enduml

PlantUML version 1.2019.05beta2(Unknown compile time)
(GPL source distribution)
Java Runtime: Java(TM) SE Runtime Environment
JVM: Java HotSpot(TM) 64-Bit Server VM
Java Version: 1.7.0_25-b15
Operating System: Linux
Default Encoding: UTF-8
Language: en
Country: US
--></g></svg>
